<svg viewBox="0 0 128 128" xml:space="preserve" xmlns="http://www.w3.org/2000/svg"><path d="M109.129 84.274H18.734a4.695 4.695 0 0 1-4.69-4.69v-60.88a4.695 4.695 0 0 1 4.69-4.689h90.395a4.695 4.695 0 0 1 4.69 4.689v60.88a4.695 4.695 0 0 1-4.69 4.69zM18.734 18.015a.698.698 0 0 0-.69.689v60.88c0 .375.316.69.69.69h90.395c.374 0 .69-.315.69-.69v-60.88a.698.698 0 0 0-.69-.689H18.734zM80.039 96.837H47.824a2 2 0 0 1 0-4h32.215a2 2 0 0 1 0 4z" fill="#e6e6e6" class="fill-000000"></path><path d="M61.932 94.837h4v17.178h-4z" fill="#e6e6e6" class="fill-000000"></path><path d="M111.932 114.015h-96a2 2 0 0 1 0-4h96a2 2 0 0 1 0 4z" fill="#e6e6e6" class="fill-000000"></path></svg>