<svg data-name="Layer 1" viewBox="0 0 79.935 73.61" xmlns="http://www.w3.org/2000/svg"><path d="M48.932 53.387a7.226 7.226 0 0 1 5.793.582l13.071-18.41a7.29 7.29 0 0 1-.808-.824L46.633 48.21ZM43.912 60.287a7.246 7.246 0 0 1 3.637-6.282l-2.196-4.947-23.798 15.755a7.227 7.227 0 0 1 .776 1.575l21.648-5.164a7.289 7.289 0 0 1-.067-.937ZM69.029 36.44 55.957 54.847a7.217 7.217 0 0 1 1.966 8.068l16.992 10.851a7.263 7.263 0 0 1 4.019-2.902L73.08 37.35c-.164.012-.327.025-.494.025a7.215 7.215 0 0 1-3.558-.936ZM36.338 25.02l9.672 21.787 20.145-13.336a7.124 7.124 0 0 1-.708-4.602l-26-7.423a7.272 7.272 0 0 1-3.11 3.574ZM57.228 64.269a7.247 7.247 0 0 1-12.898-1.573l-21.647 5.165a7.288 7.288 0 0 1 .067.936c0 .08-.01.157-.012.237L73.883 76.1a7.198 7.198 0 0 1 .318-.993ZM44.73 47.655l-9.775-22.017a7.136 7.136 0 0 1-4.03.122L17.551 61.842a7.246 7.246 0 0 1 3.04 1.794Z" transform="translate(-8.24 -11.483)" fill="none"></path><path d="M72.68 59.1c-.167 0-.33.014-.494.025L66.333 25.61a7.252 7.252 0 1 0-8.714-9.68l-26-7.424a7.252 7.252 0 1 0-10.354 5.245L7.798 50.087c-.18-.014-.36-.028-.543-.028a7.255 7.255 0 1 0 7.037 8.991l51.145 7.068c-.002.08-.012.157-.012.237A7.255 7.255 0 1 0 72.68 59.1Zm0 12.996a5.74 5.74 0 1 1 5.74-5.741 5.747 5.747 0 0 1-5.74 5.74Zm-1.986-12.714a7.263 7.263 0 0 0-4.02 2.902l-16.991-10.85a7.217 7.217 0 0 0-1.966-8.068l13.072-18.41a7.215 7.215 0 0 0 3.558.937c.166 0 .33-.014.494-.025Zm-69.18-2.068a5.74 5.74 0 1 1 5.74 5.74 5.747 5.747 0 0 1-5.74-5.74Zm11.801-3.983 23.798-15.756 2.196 4.947a7.169 7.169 0 0 0-3.57 7.219L14.09 54.905a7.227 7.227 0 0 0-.776-1.574Zm51.032-40.434a5.74 5.74 0 1 1-5.741 5.74 5.747 5.747 0 0 1 5.74-5.74Zm-4.79 11.18L46.483 42.485a7.226 7.226 0 0 0-5.793-.582l-2.298-5.176 20.355-13.476a7.29 7.29 0 0 0 .808.824Zm-16.63 30.468a5.74 5.74 0 1 1 5.74-5.74 5.747 5.747 0 0 1-5.74 5.74Zm14.28-37.159a7.124 7.124 0 0 0 .708 4.602L37.77 35.324l-9.673-21.787a7.272 7.272 0 0 0 3.11-3.574ZM24.48 1.514a5.74 5.74 0 1 1-5.741 5.74 5.747 5.747 0 0 1 5.74-5.74Zm-1.795 12.763a7.136 7.136 0 0 0 4.03-.122l9.775 22.017-24.14 15.98a7.246 7.246 0 0 0-3.039-1.793ZM14.498 57.55c.002-.08.012-.157.012-.237a7.288 7.288 0 0 0-.067-.936l21.647-5.165a7.247 7.247 0 0 0 12.898 1.573L65.96 63.625a7.198 7.198 0 0 0-.318.993Z" fill="#ffffff" class="fill-000000"></path></svg>