<svg viewBox="0 0 846.66 846.66" xml:space="preserve" xmlns="http://www.w3.org/2000/svg" shape-rendering="geometricPrecision" text-rendering="geometricPrecision" image-rendering="optimizeQuality" fill-rule="evenodd" clip-rule="evenodd"><path d="M423.33 8.19c229.27 0 415.14 185.87 415.14 415.14 0 229.27-185.87 415.14-415.14 415.14-229.27 0-415.14-185.87-415.14-415.14C8.19 194.06 194.06 8.19 423.33 8.19zM50.28 402.57h87.99c3.68-109.07 38.12-228.76 113.02-310.98C134.33 152.36 57.52 270.37 50.28 402.57zm129.53 0h82.84c1.81-99.53 18.05-237.17 69.51-325.58-103.72 64.62-148.22 210.46-152.35 325.58zm124.36 0h238.32c-1.17-62.73-28-352.87-119.16-352.87S305.34 339.84 304.17 402.57zm279.84 0h82.84c-4.13-115.12-48.63-260.96-152.35-325.58 51.46 88.41 67.7 226.05 69.51 325.58zm124.38 0h87.99c-7.24-132.21-84.05-250.2-201.01-310.98 74.91 82.26 109.34 201.87 113.02 310.98zm87.99 41.52h-87.99c-3.68 109.11-38.11 228.72-113.02 310.98 116.96-60.78 193.77-178.77 201.01-310.98zm-129.53 0h-82.84c-1.81 99.53-18.05 237.17-69.51 325.58 103.72-64.62 148.22-210.46 152.35-325.58zm-124.36 0H304.17c1.17 62.73 28 352.87 119.16 352.87s117.99-290.14 119.16-352.87zm-279.84 0h-82.84c4.13 115.12 48.63 260.96 152.35 325.58-51.46-88.41-67.7-226.05-69.51-325.58zm-124.38 0H50.28c7.24 132.21 84.05 250.2 201.01 310.98-74.91-82.24-109.34-201.89-113.02-310.98z" fill="#ffffff" fill-rule="nonzero" class="fill-000000"></path></svg>