<svg data-name="Layer 1" viewBox="0 0 32 32" xmlns="http://www.w3.org/2000/svg"><path d="M30.5 14h-29A1.5 1.5 0 0 0 0 15.5v10A1.5 1.5 0 0 0 1.5 27h29a1.5 1.5 0 0 0 1.5-1.5v-10a1.5 1.5 0 0 0-1.5-1.5Zm.5 11.5a.5.5 0 0 1-.5.5h-29a.5.5 0 0 1-.5-.5v-10a.5.5 0 0 1 .5-.5h29a.5.5 0 0 1 .5.5v10Z" fill="#e6e6e6" class="fill-000000"></path><path d="M23 22h-1v1h2v-3h-1v2zM21 24h3v1h-3zM4 20h18v1H4zM2 20h1v1H2zM2 16h1v1H2zM2 22h2v1H2zM2 24h3v1H2zM6 24h14v1H6zM5 22h16v1H5zM2 18h22v1H2zM25 18h5v1h-5zM4 16h20v1H4zM25 20h5v1h-5zM28 23h-1v1h-1v1h3v-1h-1v-1zM13.5 12H18a3.5 3.5 0 0 0 0-7h-4.5a3.5 3.5 0 0 0 0 7Zm7-3.5A2.5 2.5 0 0 1 18 11h-2V6h2a2.5 2.5 0 0 1 2.5 2.5Zm-7-2.5H15v5h-1.5a2.5 2.5 0 0 1 0-5Z" fill="#e6e6e6" class="fill-000000"></path><path d="M12 8h2v1h-2z" fill="#e6e6e6" class="fill-000000"></path></svg>